<?xml version="1.0" encoding="utf-8"?>
<!-- Generator: Adobe Illustrator 19.1.0, SVG Export Plug-In . SVG Version: 6.00 Build 0)  -->
<svg version="1.1" id="Layer_1" xmlns:sketch="http://www.bohemiancoding.com/sketch/ns"
	 xmlns="http://www.w3.org/2000/svg" xmlns:xlink="http://www.w3.org/1999/xlink" x="0px" y="0px" viewBox="-445 601.7 664.4 220.3"
	 style="enable-background:new -445 601.7 664.4 220.3;" xml:space="preserve">
<style type="text/css">
	.st0{fill:#B5E6FB;}
</style>
<title>ribbon</title>
<desc>Created with Sketch.</desc>
<g id="Page-1_1_" sketch:type="MSPage">
	<g id="ribbon_1_" transform="translate(-1.000000, 0.000000)" sketch:type="MSLayerGroup">
		<g id="Page-1" sketch:type="MSShapeGroup">
			<g id="ribbon">
				<path id="Fill-1" class="st0" d="M-337.9,784.2c-18.4,7.2-35.2,16.7-51.6,28.5c-4.3,5.3-9.2,10.2-14.4,14.7
					c-0.9-15.1-1.2-29.7,0.9-44.6c-11.1-9.9-28.1-4.4-41.3-5.2c7.4-19.8,20.2-36.9,37.7-48.8c9.4,14.4,14.4,30.9,23,45.7
					c3.9,3.1,8.6,5.3,13.1,7.6c17.2-2.7,32.7-7.4,50.4-8C-322.8,781.4-331.8,781.8-337.9,784.2"/>
				<path id="Fill-2" class="st0" d="M-321.8,768.3c-15.9,2.3-31.3,5.5-46.9,9c-0.1-7,8.4-12.8,14.8-17c6.1-4.9,13.9-8.6,21.8-12.2
					C-327.2,752.6-322.6,762.5-321.8,768.3"/>
				<path id="Fill-3" class="st0" d="M-377,773.9c-13.8-24.1-25.3-48.4-34-74.7c12.7-25.3,41.8-38,67.2-46.2
					c4.1,19.9,7,40,11.5,59.9c8.7,11,22.9,14.2,31.1,25.5C-333.1,740.3-352.5,754.8-377,773.9"/>
				<path id="Fill-4" class="st0" d="M-295.3,734.4c-7.1-6.3-16.6-9.6-22.7-17.4c7.6-0.4,12-0.5,19.4-2.1
					C-298.4,722.5-295.7,727.2-295.3,734.4"/>
				<path id="Fill-5" class="st0" d="M-97.6,704.8c-7,0-14,0.3-21,0.4c-16.2,0.5-32.6,0.7-48.8,0.9c-29.7,0.7-59.6,1.7-89.3,3.1
					c-22.9,0.9-45.6,2.3-68.4,4.1c-8.4-28.6-13.2-57.7-15.8-87.4c23.8-6.4,47.7-9.9,72-12.3c31.9-3.1,64.6-4.8,96.5-5.2
					c16.7-0.1,33.8,0.1,50.7,0c8.7,0,17.5,0.1,26.1,0.1c0-0.3,0-0.4,0-0.5c68.4-1.5,143.3-4.1,209.9,14.4
					c-2.1,29.7-6.5,58.9-14.6,87.7c-11.9-0.9-23.8-1.5-35.7-2c-29.4-1.2-59.1-1.7-88.5-2.4C-48.7,705.2-73.1,704.6-97.6,704.8"/>
				<path id="Fill-6" class="st0" d="M70.7,731.8c0.3-7.4,2.8-12,3.1-19.6c7.4,1.5,11.9,1.6,19.5,1.9
					C87.1,721.9,77.8,725.5,70.7,731.8"/>
				<path id="Fill-7" class="st0" d="M76.6,735.4c8.2-11.5,22.2-14.8,30.7-25.9c4.1-19.9,6.7-40.1,10.6-60
					c25.5,8,54.8,20.2,67.9,45.3c-8.2,26.5-19.4,51.1-32.7,75.3C128.2,751.3,108.7,737,76.6,735.4"/>
				<path id="Fill-8" class="st0" d="M107.9,744.9c7.9,3.5,15.6,7.1,21.9,11.9c6.4,4,15,9.8,15,16.7c-15.8-3.2-31.1-6.3-47.1-8.3
					C98.4,759.4,102.9,749.4,107.9,744.9"/>
				<path id="Fill-9" class="st0" d="M179.2,778.6c2.4,15,2.4,29.5,1.6,44.6c-5.3-4.5-10.3-9.4-14.7-14.6
					c-16.6-11.6-33.4-20.9-52-27.8c-6.3-2.3-15.1-2.7-17.9-9.8c17.6,0.3,33.3,4.8,50.5,7.2c4.5-2.4,9.1-4.5,13-7.8
					c8.4-15,13.1-31.5,22.3-46.1c17.6,11.6,30.7,28.6,38.4,48.3C207.2,773.6,190.1,768.5,179.2,778.6"/>
			</g>
		</g>
	</g>
</g>
</svg>
